#!OML:ASF E:/inclinewalkrobotboard/Project1/Captureday1/Session1/subject1.ASF
:FULLY-SPECIFIED
:DEGREES
238
root 0 0 0 76.31398313104883 -27.426608526693258 -45.45431745561681
lowerback -11.189819718069675 7.863077935535385 9.56604355058035
upperback -20.513580004472537 10.074272773158727 2.9568852706489115
thorax -15.45175435046967 3.9701471529795054 -1.7134675907897758
lowerneck -7.548417419083595 9.771086738575052 5.412002793174445
upperneck 11.715740286896404 11.67846345228432 7.28748737880105
head 4.807623267935283 6.266578402523872 2.0768942728693283
rclavicle 6.090078023875287E-15 -3.394401021453455E-15
rhumerus 108.55563309526127 -24.884594715447157 -115.06733326282395
rradius 0.7932487824789476
rwrist 69.63563644581268
rhand 13.792808441544217 -12.629269798785812
rfingers 7.125020000000017
rthumb 38.78576411403108 -38.509600659192486
lclavicle -6.675064248630387E-16 1.5362213491500674E-15
lhumerus -0.22336774434857531 25.05167849461057 1.809554330818301
lradius 9.236745945705128
lwrist -41.49348112987066
lhand 12.07055396415707 36.71032933038169
lfingers 7.125020000000047
lthumb 37.17958108900716 63.80937726253722
rfemur 183.05178527190927 -219.7685934230763 -192.0869234098193
rtibia 67.31538818952293
rfoot -23.090514728648703 -9.84932736442344
rtoes 49.91581849865362
lfemur -109.55968399440633 35.774713882737444 -24.204015175661535
ltibia 68.30339631991656
lfoot -38.22578496630021 35.57093479770795
ltoes 38.87441830082453
239
root 0 0 0 76.31403840940698 -27.426476468251927 -45.45434342343145
lowerback -11.189919301789967 7.8630734542551295 9.56608147727682
upperback -20.513638965512765 10.074269724527234 2.9569334723876177
thorax -15.45176052051589 3.97014514516572 -1.7134337357556575
lowerneck -7.548322690965653 9.771081411113299 5.411994557365216
upperneck 11.715791934674375 11.67845719580928 7.287502130346129
head 4.807627607904113 6.266574568824987 2.0768968341419995
rclavicle 6.090889811179256E-15 -3.3940471181970108E-15
rhumerus 108.55181232005629 -24.883209312403654 -115.06838537674972
rradius 0.7919233835166501
rwrist 69.63689152835273
rhand 13.793488356410233 -12.629458815724094
rfingers 7.125020000000017
rthumb 38.78641503392155 -38.50965058552569
lclavicle -6.670610214225489E-16 1.5367987965824424E-15
lhumerus -0.2244218680188439 25.050790967120008 1.8090558489054729
lradius 9.236929290129773
lwrist -41.49337788446073
lhand 12.071536082893164 36.71067403469369
lfingers 7.125020000000047
lthumb 37.18052057218796 63.809571716576876
rfemur 183.04994902603477 -219.7701635064763 -192.08858029088782
rtibia 67.31181549777541
rfoot -23.103031343018944 -9.844683547532034
rtoes 49.91892455957924
lfemur -109.56381181321498 35.77533620020742 -24.2055219656074
ltibia 68.30876656770823
lfoot -38.221110162657716 35.570952581461455
ltoes 38.87311549494176
240
root 0 0 0 76.31408702856245 -27.42634855841917 -45.454371658889684
lowerback -11.189999940119282 7.863070046217709 9.566116605008805
upperback -20.513690573299662 10.074267648406803 2.9569757726321986
thorax -15.45176946601594 3.9701434511126417 -1.7134051114191822
lowerneck -7.548240592158866 9.771077791863824 5.411986743683928
upperneck 11.715828520555178 11.67845389064694 7.2875152532552585
head 4.807628386810136 6.266572074466363 2.076899193966134
rclavicle 6.091568322474764E-15 -3.393783904244686E-15
rhumerus 108.54928368847979 -24.882246799758374 -115.06993410045752
rradius 0.7907108272360865
rwrist 69.63827432721095
rhand 13.793749843432483 -12.629484219143775
rfingers 7.125020000000017
rthumb 38.78667013903073 -38.50962007501357
lclavicle -6.667309839751294E-16 1.5372624669091726E-15
lhumerus -0.22505526200154335 25.050035475456877 1.8085448891928806
lradius 9.237093043042567
lwrist -41.49326379804849
lhand 12.072380115528672 36.710982794599886
lfingers 7.125020000000047
lthumb 37.18132774024276 63.80975116589522
rfemur 183.048393513358 -219.7715465410933 -192.09005802511706
rtibia 67.30870522111337
rfoot -23.113863253246492 -9.840609501950784
rtoes 49.92167027989236
lfemur -109.56735203712478 35.775873249106674 -24.20679747839667
ltibia 68.31333503752427
lfoot -38.2170972337272 35.57096736174924
ltoes 38.87200285967242
241
root 0 0 0 76.31412897452047 -27.42623252379713 -45.45440053846664
lowerback -11.190063945434403 7.863067604839129 9.56614845088005
upperback -20.513734239903144 10.0742664566542 2.957011792891634
thorax -15.451779267280436 3.970142072891064 -1.713381880289119
lowerneck -7.5481716940390005 9.771075326213667 5.411979702795354
upperneck 11.715854169343283 11.678452319242464 7.287526576182751
head 4.807627237395045 6.266570454006937 2.0769012843812376
rclavicle 6.092135206752444E-15 -3.3935925798493397E-15
rhumerus 108.54783360507469 -24.88163354059841 -115.07185532342857
rradius 0.7896124385577856
rwrist 69.63972939488345
rhand 13.793675233029305 -12.629379883692993
rfingers 7.125020000000017
rthumb 38.78660712814174 -38.5095265784408
lclavicle -6.664882092541697E-16 1.5376390086529098E-15
lhumerus -0.22539149917469992 25.049403785212604 1.8080553667874497
lradius 9.23723280072852
lwrist -41.493148518947166
lhand 12.073094833832938 36.71125436709389
lfingers 7.125020000000047
lthumb 37.182011100361464 63.80991328237002
rfemur 183.04709046393282 -219.77277015411283 -192.09137519011614
rtibia 67.3060080443583
rfoot -23.12322140977673 -9.837030233826702
rtoes 49.92407315178173
lfemur -109.57038049075953 35.776335879487675 -24.207876854171882
ltibia 68.31722602300981
lfoot -38.21366762075773 35.57097719537905
ltoes 38.871050171893664
242
root 0 0 0 76.31416469837724 -27.426131562763686 -45.45442919533436
lowerback -11.190113604860525 7.863066009840368 9.566176983656703
upperback -20.513770192774473 10.074266041754738 2.9570417580400385
thorax -15.451788887632212 3.970140988033833 -1.7133637629394167
lowerneck -7.548115411413976 9.771073667652482 5.411973569394654
upperneck 11.715871694678361 11.678451763003492 7.287536135755458
head 4.807625114445915 6.266569421049321 2.0769030904916708
rclavicle 6.0926084730765825E-15 -3.393459156381632E-15
rhumerus 108.5472739436957 -24.881305954639313 -115.0740499928059
rradius 0.7886246783313062
rwrist 69.641215803568
rhand 13.793333219216603 -12.629173591188133
rfingers 7.125020000000017
rthumb 38.78629086303207 -38.509384176968496
lclavicle -6.663119592418892E-16 1.5379471389850989E-15
lhumerus -0.22551606697409632 25.04888046081076 1.807601897547947
lradius 9.237349495685255
lwrist -41.4930363908822
lhand 12.073694267970842 36.71149121678071
lfingers 7.125020000000047
lthumb 37.18258413115638 63.81005842017686
rfemur 183.04601036141108 -219.7738570199626 -192.09254965359395
rtibia 67.30367500306909
rfoot -23.131298195177862 -9.833880074766597
rtoes 49.92616063154874
lfemur -109.5729652774119 35.77673400995197 -24.208788769058255
ltibia 68.3205418382438
lfoot -38.21074751604235 35.57098111328216
ltoes 38.87023305183278
243
root 0 0 0 76.31419486363771 -27.426046171443858 -45.45445720299185
lowerback -11.190151057767793 7.863065139097696 9.566202408213504
upperback -20.51379909513568 10.074266290047229 2.957066209001442
thorax -15.451797838047955 3.9701401626025694 -1.7133502484831853
lowerneck -7.548070555531872 9.771072600481094 5.411968349175401
upperneck 11.715883026757817 11.678451815871249 7.287544077549507
head 4.807622543907715 6.266568801930873 2.076904626371726
rclavicle 6.093002971338568E-15 -3.3933729630601165E-15
rhumerus 108.54744164884247 -24.88121009671235 -115.07643923403086
rradius 0.7877409258463715
rwrist 69.64270423180575
rhand 13.7927807238664 -12.62888805738737
rfingers 7.125020000000017
rthumb 38.78577511911902 -38.509204249736314
lclavicle -6.661870901338733E-16 1.5382001329533416E-15
lhumerus -0.225487562587821 25.048448303491686 1.8071882398408476
lradius 9.237446341905425
lwrist -41.492928891571715
lhand 12.07419397826535 36.71169735501513
lfingers 7.125020000000047
lthumb 37.18306174285357 63.81018815517753
rfemur 183.0451244056386 -219.77482563641706 -192.09359782312188
rtibia 67.30166016990479
rfoot -23.13826457087482 -9.831102610067814
rtoes 49.92796465478416
lfemur -109.57516664699466 35.777076445761224 -24.209557055615583
ltibia 68.32336727411543
lfoot -38.20826961307681 35.57097886044701
ltoes 38.8695315827068
244
root 0 0 0 76.31422019294232 -27.42597538282861 -45.45448437454695
lowerback -11.190178234297713 7.863064876182817 9.566225031450719
upperback -20.51382179818858 10.074267090538722 2.957085817323872
thorax -15.45180594754178 3.970139559239149 -1.7133407331588009
lowerneck -7.548035693336779 9.771071988068165 5.411963978246092
upperneck 11.715889515866031 11.678452257705382 7.2875505930961335
head 4.807619794660873 6.266568490982493 2.076905919681236
rclavicle 6.093330935758264E-15 -3.393325613082752E-15
rhumerus 108.54819699869108 -24.88130069460263 -115.07896020545488
rradius 0.7869528845793106
rwrist 69.64417419771081
rhand 13.792064745296596 -12.628541847100587
rfingers 7.125020000000017
rthumb 38.7851043209743 -38.508996020964446
lclavicle -6.661025284792452E-16 1.5384076341739722E-15
lhumerus -0.22534626618747566 25.048091143175625 1.806812665335805
lradius 9.237527131166015
lwrist -41.49282612140801
lhand 12.074608993600153 36.711877118780066
lfingers 7.125020000000047
lthumb 37.183458321350926 63.81030444869417
rfemur 183.04440571061696 -219.77569115250725 -192.09453437283298
rtibia 67.29992194272629
rfoot -23.144270106641013 -9.82864977283535
rtoes 49.929517996156356
lfemur -109.57703736355876 35.77737086758328 -24.21020184269772
ltibia 68.32577316715138
lfoot -38.2061737634778 35.57097066746655
ltoes 38.868929275621184
245
root 0 0 0 76.31424138289916 -27.42591755939499 -45.454510642329986
lowerback -11.190196834028644 7.863065114620067 9.566245184615434
upperback -20.513839190290792 10.074268340206118 2.957101273773434
thorax -15.451813214176385 3.9701391417313783 -1.7133346051555574
lowerneck -7.5480093645841 9.77107173982729 5.411960361360492
upperneck 11.715892138403932 11.678452972552979 7.287555882562382
head 4.80761699100466 6.266568421776099 2.076907002473385
rclavicle 6.0936024904859594E-15 -3.393310314441666E-15
rhumerus 108.54942123665336 -24.881539993565802 -115.08156273875937
rradius 0.7862516001707291
rwrist 69.64561171575195
rhand 13.791224033451702 -12.62815014874674
rfingers 7.125020000000017
rthumb 38.784315115535975 -38.508766996010536
lclavicle -6.660500747524274E-16 1.5385769051527544E-15
lhumerus -0.2251203272331388 25.047795020893915 1.806471164209924
lradius 9.237595385953782
lwrist -41.49272764952501
lhand 12.07495282371882 36.712034553532675
lfingers 7.125020000000047
lthumb 37.183786792586304 63.81040921393688
rfemur 183.04382992613787 -219.77646610641966 -192.09537223667067
rtibia 67.298423452349
rfoot -23.149444506874858 -9.82648065451024
rtoes 49.930852059147284
lfemur -109.57862333199463 35.777623908543326 -24.21074034777827
ltibia 68.32781918609132
lfoot -38.204406951219916 35.570957065673596
ltoes 38.86841230669449
